<svg xmlns="http://www.w3.org/2000/svg" xmlns:xlink="http://www.w3.org/1999/xlink" version="1.1" id="Layer_1" x="0px" y="0px" viewBox="0 0 304 94" style="enable-background:new 0 0 304 94;" xml:space="preserve">
<style type="text/css">
	.st0{fill:url(#SVGID_1_);}
</style>
<g id="Слой_2_1_">
	<g id="Слой_1-2_1_">
		
			<linearGradient id="SVGID_1_" gradientUnits="userSpaceOnUse" x1="12.6243" y1="-93.8249" x2="56.2845" y2="-186.3429" gradientTransform="matrix(1 0 0 -1 0 -93.3599)">
			<stop offset="0" style="stop-color:#7CAAE7"/>
			<stop offset="8.000000e-02" style="stop-color:#7498DB"/>
			<stop offset="0.28" style="stop-color:#626DBD"/>
			<stop offset="0.49" style="stop-color:#544BA6"/>
			<stop offset="0.68" style="stop-color:#493395"/>
			<stop offset="0.85" style="stop-color:#43248B"/>
			<stop offset="1" style="stop-color:#411F88"/>
		</linearGradient>
		<path class="st0" d="M27.2,67.3c7.3-0.2,13.4,5.6,13.6,12.9c0.2,7.3-5.6,13.4-12.9,13.6c-0.2,0-0.5,0-0.7,0    c-7.3,0.2-13.4-5.6-13.6-12.9c-0.2-7.3,5.6-13.4,12.9-13.6C26.7,67.3,27,67.3,27.2,67.3z M27.2,11.8C42,11.8,53.9,23.5,53.9,38    S42,64.2,27.2,64.2S0.5,52.4,0.5,38S12.4,11.8,27.2,11.8z M27.2,21.6c-9,0-16.4,7.3-16.4,16.4s7.3,16.4,16.4,16.4    c9,0,16.4-7.3,16.4-16.4S36.2,21.6,27.2,21.6L27.2,21.6z M46.7,0.7C43,0.6,40,3.6,40,7.2l0,0c0,3.7,3,6.7,6.7,6.7s6.7-3,6.7-6.7    C53.3,3.6,50.3,0.6,46.7,0.7L46.7,0.7z"/>
	</g>
</g>
<g>
	<path d="M112,37.7c-1.3,0-2.3,1-2.3,2.3v8.3c0,3.8-2.2,6.7-6,6.8c-3.1,0-5.1-2-5.1-5.3V40c0-1.3-1-2.3-2.3-2.3l0,0   c-1.3,0-2.3,1-2.3,2.3v11.2c0,5.2,3,8.4,8,8.4c3.5,0,6.3-1.4,7.7-4.4v2.1c0,1.3,1,2.3,2.3,2.3l0,0c1.3,0,2.3-1,2.3-2.3V40   C114.4,38.7,113.3,37.7,112,37.7L112,37.7z"/>
</g>
<g>
	<path d="M131,37.5c-3.4,0-6,1.4-7.6,3.9v-9.8c0-1.2-0.9-2.3-2.1-2.5c-1.4-0.1-2.6,1-2.6,2.3v25.8c0,1.3,1,2.3,2.3,2.3l0,0   c1.3,0,2.3-1,2.3-2.3v-1.6c1.6,2.5,4.2,3.9,7.7,3.9c6.2,0,10.3-4.4,10.3-10.9C141.3,42,137.1,37.5,131,37.5z M130,55.5   c-3.9,0-6.6-2.9-6.6-7.1c0-4.1,2.7-7,6.6-7c3.9,0,6.6,3,6.6,7C136.6,52.6,133.9,55.5,130,55.5z"/>
</g>
<path d="M146.9,37.7L146.9,37.7c1.2,0,2.2,1,2.2,2.2V48c0,3.9,2.6,6.7,6.3,6.7s6.2-2.8,6.2-6.7v-6.8v-1.3c0-1.2,1-2.2,2.2-2.2h0.2  c1.2,0,2.2,1,2.2,2.2v17.4c0,6.2-4.4,10.2-11.3,10.2c-2.6,0-5-0.6-7.2-1.8c-1-0.5-1.4-1.8-0.8-2.7l0,0c0.5-0.9,1.7-1.2,2.6-0.7  c1.6,0.9,3.3,1.4,5.3,1.4c4.1,0,6.8-2.4,6.8-6.2v-2.7c-1.5,2.4-3.9,3.7-7.2,3.7c-5.9,0-9.8-4.2-9.8-10.5v-8  C144.7,38.6,145.6,37.7,146.9,37.7z"/>
<path d="M93.7,63.6L85,49.8c3.5-1.6,5.5-4.7,5.5-9.1c0-6.2-4.2-9.7-11.5-9.7h-9.2c-1.3,0-2.4,1.1-2.4,2.4v23.7  c0,1.3,1.1,2.4,2.4,2.4s2.4-1.1,2.4-2.4v-6.2c0,0,7.4,0,7.8,0l9.6,15.2c0.7,1.2,2.2,1.5,3.3,0.8C94,66.2,94.3,64.7,93.7,63.6z   M72.2,46.7V35.4H79c4.4,0,6.9,1.7,6.9,5.5c0,3.3-1.8,5.2-5.2,5.7c-0.5,0.1-1.7,0.1-1.7,0.1H72.2z"/>
<g>
	<path d="M231.9,38.1c-2.1,0.6-3.7,2-4.7,4.1v-2c0-1.3-1-2.3-2.3-2.3s-2.3,1-2.3,2.3v17c0,1.3,1,2.3,2.3,2.3s2.3-1,2.3-2.3v-9.1   c0.3-3.1,2.3-5.4,5.6-5.9c1-0.1,1.8-1.1,1.8-2.1C234.6,38.6,233.4,37.6,231.9,38.1z"/>
	<path d="M276.7,37.7c-1.3,0-2.3,1-2.3,2.3v1.3c-1.5-2.3-4-3.7-7.3-3.6c-5.7,0-9.5,4.2-9.5,10.2c0,6.2,3.9,10.4,9.7,10.4   c3.2,0,5.7-1.3,7.1-3.6v2.7c0,3.7-2.7,6.1-6.7,6.1c-2,0-3.6-0.5-5.2-1.3c-0.9-0.5-2-0.2-2.5,0.6l-0.1,0.1c-0.5,0.9-0.2,2.1,0.7,2.6   c2.2,1.2,4.6,1.8,7.3,1.8c6.7,0,11.1-3.9,11.1-10.1V40C279,38.7,278,37.7,276.7,37.7z M268.2,54.7c-3.7,0-6.2-2.7-6.3-6.6   c0-3.8,2.6-6.6,6.3-6.6c3.6,0,6.2,2.7,6.2,6.6C274.4,51.9,271.9,54.7,268.2,54.7z"/>
	<path d="M293.3,37.7c-6.4,0-10.9,4.4-10.9,10.9s4.4,10.9,11,10.9c2.9,0,5.4-0.8,7.4-2.3c0.9-0.7,1-1.9,0.2-2.7   c-0.6-0.6-1.7-0.7-2.4-0.2c-1.4,1-3,1.5-4.8,1.5c-3.4,0-5.9-2.1-6.7-5.4h14.4c1.1,0,1.9-0.9,1.8-1.9   C303.1,41.9,299.9,37.7,293.3,37.7z M287.1,47c0.5-3.4,2.9-5.6,6.3-5.6c3.5,0,5.8,2.1,6,5.6H287.1z"/>
	<path d="M210.1,37.7c-3.3,0-5.3,0.6-7.6,1.8c-0.9,0.5-1.3,1.7-0.7,2.6c0.5,0.9,1.6,1.1,2.5,0.7c1.6-0.8,3.2-1.3,4.8-1.3   c3.4,0,5.1,1.6,5.1,4.3v0.6h-6.5c-5.2,0-8.1,2.5-8.1,6.5c0,3.8,2.9,6.7,7.6,6.7c3,0,5.4-0.9,7-2.7v0.4c0,1.3,1,2.3,2.3,2.3   s2.3-1,2.3-2.3v-2.1v-4.3v-5.6C218.7,40.5,215.6,37.7,210.1,37.7z M214.2,51.8c-0.2,2.3-2.8,4.1-6.1,4.1c-2.6,0-4.2-1.3-4.2-3.2   c0-2.1,1.4-2.9,4.4-2.9h5.8v2C214.1,51.8,214.2,51.8,214.2,51.8z"/>
	<path d="M246.1,37.7c-3.3,0-5.3,0.6-7.6,1.8c-0.9,0.5-1.3,1.7-0.7,2.6c0.5,0.9,1.6,1.1,2.5,0.7c1.6-0.8,3.2-1.3,4.8-1.3   c3.4,0,5.1,1.6,5.1,4.3v0.6h-6.5c-5.2,0-8.1,2.5-8.1,6.5c0,3.8,2.9,6.7,7.6,6.7c3,0,5.4-0.9,7-2.7v0.4c0,1.3,1,2.3,2.3,2.3   s2.3-1,2.3-2.3v-12C254.7,40.5,251.6,37.7,246.1,37.7z M250.1,51.8c-0.2,2.3-2.7,4.1-6,4.1c-2.6,0-4.2-1.3-4.2-3.2   c0-2.1,1.4-2.9,4.4-2.9h5.8V51.8z"/>
	<path d="M193.7,44.2h-5c-1.1,0-2.1,0.9-2.1,2.1c0,1.1,0.9,2.1,2.1,2.1h3v5c-2,1.2-4.4,1.9-6.5,1.9c-5.8,0-10.3-4.4-10.3-10.1   c0-5.6,4.5-10,10.3-10c2.3,0,4.6,0.7,6.6,2c0.9,0.6,2.2,0.3,2.9-0.5c0.8-1.1,0.6-2.5-0.6-3.2c-2.6-1.6-5.7-2.5-8.9-2.5   c-8.6,0-15.1,6.2-15.1,14.3s6.5,14.3,14.9,14.3c3.4,0,7.1-1.2,9.9-2.9c0.7-0.4,1.1-1.2,1.1-2.1v-8.2c0,0,0,0,0-0.1c0,0,0,0,0-0.1   C195.8,45.1,194.9,44.2,193.7,44.2z"/>
</g>
</svg>